<?xml version="1.0" encoding="UTF-8" standalone="no"?>
<!-- Created with Inkscape (http://www.inkscape.org/) -->

<svg
   width="256"
   height="256"
   viewBox="0 0 67.733332 67.733333"
   version="1.1"
   id="svg5"
   xml:space="preserve"
   inkscape:version="1.2.2 (b0a8486541, 2022-12-01)"
   sodipodi:docname="keyboard.svg"
   inkscape:export-filename="../remote-server/src/main/resources/icons/codec-low-16x16.png"
   inkscape:export-xdpi="6"
   inkscape:export-ydpi="6"
   xmlns:inkscape="http://www.inkscape.org/namespaces/inkscape"
   xmlns:sodipodi="http://sodipodi.sourceforge.net/DTD/sodipodi-0.dtd"
   xmlns:xlink="http://www.w3.org/1999/xlink"
   xmlns="http://www.w3.org/2000/svg"
   xmlns:svg="http://www.w3.org/2000/svg"><sodipodi:namedview
     id="namedview7"
     pagecolor="#ffffff"
     bordercolor="#666666"
     borderopacity="1.0"
     inkscape:showpageshadow="2"
     inkscape:pageopacity="0.0"
     inkscape:pagecheckerboard="0"
     inkscape:deskcolor="#d1d1d1"
     inkscape:document-units="mm"
     showgrid="true"
     showguides="true"
     inkscape:zoom="2.8284271"
     inkscape:cx="109.60155"
     inkscape:cy="131.87541"
     inkscape:window-width="1916"
     inkscape:window-height="1047"
     inkscape:window-x="0"
     inkscape:window-y="29"
     inkscape:window-maximized="1"
     inkscape:current-layer="layer7"><inkscape:grid
       type="xygrid"
       id="grid1458"
       spacingx="0.26458333"
       spacingy="0.26458333"
       empspacing="16"
       enabled="true"
       dotted="true"
       originx="0"
       originy="0" /></sodipodi:namedview><defs
     id="defs2"><linearGradient
       inkscape:collect="always"
       id="linearGradient2307"><stop
         style="stop-color:#a371f4;stop-opacity:1;"
         offset="0"
         id="stop2303" /><stop
         style="stop-color:#6e5af7;stop-opacity:1;"
         offset="1"
         id="stop2305" /></linearGradient><linearGradient
       inkscape:collect="always"
       id="linearGradient1216"><stop
         style="stop-color:#fcfcfd;stop-opacity:1;"
         offset="0"
         id="stop1212" /><stop
         style="stop-color:#d9ecfa;stop-opacity:1;"
         offset="1"
         id="stop1214" /></linearGradient><linearGradient
       inkscape:collect="always"
       xlink:href="#linearGradient1216"
       id="linearGradient1218"
       x1="8.4666662"
       y1="8.4666662"
       x2="59.266666"
       y2="59.266666"
       gradientUnits="userSpaceOnUse" /><linearGradient
       inkscape:collect="always"
       xlink:href="#linearGradient2307"
       id="linearGradient2309"
       x1="33.866665"
       y1="0"
       x2="67.73333"
       y2="38.099998"
       gradientUnits="userSpaceOnUse" /></defs><g
     inkscape:label="background"
     inkscape:groupmode="layer"
     id="layer1"
     style="display:inline"
     sodipodi:insensitive="true"><path
       id="path404"
       style="display:inline;vector-effect:non-scaling-stroke;fill:url(#linearGradient1218);fill-opacity:1;stroke:none;stroke-width:0.264583;stroke-linecap:round;stroke-linejoin:round;-inkscape-stroke:hairline"
       d="M 33.866667,0 C 1.8521497,0 3e-6,1.8521467 0,33.866667 c 3e-6,32.01452 1.8521497,33.866666 33.866667,33.866666 32.014517,0 33.866663,-1.852146 33.866666,-33.866666 C 67.73333,1.8521467 65.881184,0 33.866667,0 Z"
       inkscape:label="background" /><path
       id="path1354"
       style="display:none;vector-effect:non-scaling-stroke;fill:url(#linearGradient2309);fill-opacity:1;stroke:none;stroke-width:0.264583;stroke-linecap:round;stroke-linejoin:round;-inkscape-stroke:hairline"
       d="M 33.866667,0 C 31.17297,0 28.710301,0.01582294 26.426811,0.05891113 L 67.559184,45.225663 C 67.695971,41.93603 67.733333,38.183882 67.733333,33.866667 67.73333,1.8521784 65.881152,0 33.866667,0 Z"
       inkscape:label="mark" /></g><g
     inkscape:groupmode="layer"
     id="layer3"
     inkscape:label="application"
     sodipodi:insensitive="true"
     style="display:inline"><rect
       style="vector-effect:non-scaling-stroke;fill:#4c3fd5;fill-opacity:1;stroke:none;stroke-width:0.374177;stroke-linecap:round;stroke-linejoin:round;stroke-opacity:1;-inkscape-stroke:hairline"
       id="rect1462"
       width="16.933332"
       height="8.4666662"
       x="25.4"
       y="48.683334" /><rect
       style="vector-effect:non-scaling-stroke;fill:#30a3f9;fill-opacity:1;stroke:none;stroke-width:0.264583;stroke-linecap:round;stroke-linejoin:round;stroke-opacity:1;-inkscape-stroke:hairline"
       id="rect1460"
       width="25.4"
       height="4.2333331"
       x="21.166666"
       y="55.033333"
       ry="2.1166666" /><rect
       style="vector-effect:non-scaling-stroke;fill:#ffffff;fill-opacity:1;stroke:none;stroke-width:0.264583;stroke-linecap:round;stroke-linejoin:round;stroke-dasharray:none;stroke-opacity:1;-inkscape-stroke:hairline"
       id="rect1833"
       width="42.333332"
       height="29.633333"
       x="12.7"
       y="16.933332" /><circle
       style="vector-effect:non-scaling-stroke;fill:#30a3f9;fill-opacity:1;stroke:none;stroke-width:0.264583;stroke-linecap:round;stroke-linejoin:round;stroke-opacity:1;-inkscape-stroke:hairline"
       id="path1543"
       cx="31.75"
       cy="31.75"
       r="2.1166666" /><path
       id="path1566"
       style="vector-effect:non-scaling-stroke;fill:#30a3f9;fill-opacity:1;stroke:none;stroke-width:0.264583;stroke-linecap:round;stroke-linejoin:round;-inkscape-stroke:hairline"
       d="m 39.744861,25.4 c -1.169001,0 -2.116666,0.947666 -2.116667,2.116667 0,0.16513 0.01901,0.325824 0.05478,0.480074 h -0.001 C 37.955172,29.20408 38.1,30.460032 38.1,31.75 c 0,1.289968 -0.144828,2.54592 -0.418062,3.753259 h 10e-4 c -0.03577,0.15425 -0.05478,0.314944 -0.05478,0.480074 10e-7,1.169001 0.947666,2.116667 2.116667,2.116667 1.038574,0 1.902204,-0.748117 2.082043,-1.734778 4.45e-4,-0.0024 0.0011,-0.0048 0.0016,-0.0072 0.329472,-1.483602 0.504878,-3.025184 0.504878,-4.607987 0,-1.582803 -0.175406,-3.124385 -0.504878,-4.607987 C 41.651565,26.151731 40.786003,25.4 39.744861,25.4 Z" /><path
       id="path1577"
       style="vector-effect:non-scaling-stroke;fill:#30a3f9;fill-opacity:1;stroke:none;stroke-width:0.264583;stroke-linecap:round;stroke-linejoin:round;stroke-dasharray:none;stroke-opacity:1;-inkscape-stroke:hairline"
       d="m 47.348014,21.166667 a 2.1166666,2.1166666 0 0 0 -2.116666,2.116666 2.1166666,2.1166666 0 0 0 0.109554,0.668177 l -0.0026,0.001 a 25.4,25.4 0 0 1 1.228365,7.79749 25.4,25.4 0 0 1 -1.240751,7.793323 l 0.01499,0.0047 a 2.1166666,2.1166666 0 0 0 -0.109554,0.668693 2.1166666,2.1166666 0 0 0 2.116666,2.116666 2.1166666,2.1166666 0 0 0 2.020032,-1.486214 2.1166666,2.1166666 0 0 0 0.0067,-0.02119 A 29.633333,29.633333 0 0 0 50.8,31.75 29.633333,29.633333 0 0 0 49.386133,22.712826 2.1166666,2.1166666 0 0 0 47.348014,21.166667 Z" /><path
       id="rect1643"
       style="vector-effect:non-scaling-stroke;fill:#30a3f9;fill-opacity:1;stroke:none;stroke-width:0.264583;stroke-linecap:round;stroke-linejoin:round;stroke-dasharray:none;stroke-opacity:1;-inkscape-stroke:hairline"
       d="M 19.05,29.633333 A 2.1166666,2.1166666 0 0 0 16.933333,31.75 2.1166666,2.1166666 0 0 0 19.05,33.866667 h 4.497917 V 33.84858 A 2.1166666,2.1166666 0 0 0 25.4,31.75 2.1166666,2.1166666 0 0 0 23.547917,29.64987 v -0.01654 z" /><path
       id="rect1451"
       style="vector-effect:non-scaling-stroke;fill:#8853f8;fill-opacity:1;stroke:none;stroke-width:0.284864;stroke-linecap:round;stroke-linejoin:round;stroke-opacity:1;-inkscape-stroke:hairline"
       d="m 8.4666665,21.166667 2e-7,25.4 C 8.4666667,48.911928 10.354738,50.8 12.7,50.8 l 25.4,-10e-7 -4.233334,-4.233333 -19.049999,1e-6 C 13.644036,46.566667 12.7,45.622631 12.7,44.45 V 25.4 Z"
       sodipodi:nodetypes="cssccsscc" /><path
       id="path1770"
       style="vector-effect:non-scaling-stroke;fill:#30a3f9;fill-opacity:1;stroke:none;stroke-width:0.284864;stroke-linecap:round;stroke-linejoin:round;stroke-opacity:1;-inkscape-stroke:hairline"
       d="m 12.7,12.7 c -2.345262,0 -4.2333333,1.888072 -4.2333333,4.233333 V 25.4 L 12.7,29.633333 V 19.05 c 0,-1.172631 0.944036,-2.116667 2.116667,-2.116667 h 38.1 c 1.17263,0 2.116666,0.944036 2.116666,2.116667 v 25.4 c 0,1.172631 -0.944036,2.116667 -2.116666,2.116667 H 29.633333 L 33.866667,50.8 h 21.166666 c 2.345263,0 4.233334,-1.888072 4.233334,-4.233333 V 16.933333 C 59.266667,14.588072 57.378596,12.7 55.033333,12.7 Z" /></g><g
     inkscape:groupmode="layer"
     id="layer4"
     inkscape:label="keyboard"
     style="display:none"
     sodipodi:insensitive="true"><rect
       style="vector-effect:non-scaling-stroke;fill:#30a3f9;fill-opacity:1;stroke:none;stroke-width:0.264583;stroke-linecap:round;stroke-linejoin:round;stroke-dasharray:none;stroke-opacity:1;-inkscape-stroke:hairline"
       id="rect6534"
       width="59.266666"
       height="38.099998"
       x="4.2333331"
       y="16.933332"
       ry="4" /><g
       id="g7169"
       style="fill:#fffdff;fill-opacity:1"><rect
         style="vector-effect:non-scaling-stroke;fill:#fffdff;fill-opacity:1;stroke:none;stroke-width:0.374177;stroke-linecap:round;stroke-linejoin:round;stroke-dasharray:none;stroke-opacity:1;-inkscape-stroke:hairline"
         id="rect6313"
         width="8.4666672"
         height="4.2333341"
         x="8.4666662"
         y="46.566666" /><rect
         style="vector-effect:non-scaling-stroke;fill:#fffdff;fill-opacity:1;stroke:none;stroke-width:0.244956;stroke-linecap:round;stroke-linejoin:round;stroke-dasharray:none;stroke-opacity:1;-inkscape-stroke:hairline"
         id="rect6523"
         width="25.4"
         height="4.2333331"
         x="21.166666"
         y="46.566666" /><rect
         style="vector-effect:non-scaling-stroke;fill:#fffdff;fill-opacity:1;stroke:none;stroke-width:0.264583;stroke-linecap:round;stroke-linejoin:round;stroke-dasharray:none;stroke-opacity:1;-inkscape-stroke:hairline"
         id="rect6525"
         width="8.4666662"
         height="4.2333331"
         x="50.799999"
         y="46.566666" /><path
         id="rect6527"
         style="vector-effect:non-scaling-stroke;fill:#fffdff;fill-opacity:1;stroke:none;stroke-width:0.264583;stroke-linecap:round;stroke-linejoin:round;stroke-dasharray:none;stroke-opacity:1;-inkscape-stroke:hairline"
         d="M 55.033333,29.633333 V 38.1 H 50.8 v 4.233333 h 4.233333 4.233334 v -12.7 z"
         sodipodi:nodetypes="cccccccc" /><rect
         style="vector-effect:non-scaling-stroke;fill:#fffdff;fill-opacity:1;stroke:none;stroke-width:0.264583;stroke-linecap:round;stroke-linejoin:round;stroke-dasharray:none;stroke-opacity:1;-inkscape-stroke:hairline"
         id="rect6536"
         width="8.4666662"
         height="4.2333331"
         x="50.799999"
         y="21.166666" /><rect
         style="vector-effect:non-scaling-stroke;fill:#fffdff;fill-opacity:1;stroke:none;stroke-width:0.324047;stroke-linecap:round;stroke-linejoin:round;stroke-dasharray:none;stroke-opacity:1;-inkscape-stroke:hairline"
         id="rect7058"
         width="12.7"
         height="4.2333331"
         x="8.4666662"
         y="38.099998" /><rect
         style="vector-effect:non-scaling-stroke;fill:#fffdff;fill-opacity:1;stroke:none;stroke-width:0.264583;stroke-linecap:round;stroke-linejoin:round;stroke-dasharray:none;stroke-opacity:1;-inkscape-stroke:hairline"
         id="rect7060"
         width="4.2333331"
         height="4.2333331"
         x="25.4"
         y="38.099998" /><rect
         style="vector-effect:non-scaling-stroke;fill:#fffdff;fill-opacity:1;stroke:none;stroke-width:0.264583;stroke-linecap:round;stroke-linejoin:round;stroke-dasharray:none;stroke-opacity:1;-inkscape-stroke:hairline"
         id="rect7062"
         width="4.2333331"
         height="4.2333331"
         x="42.333332"
         y="38.099998" /><rect
         style="vector-effect:non-scaling-stroke;fill:#fffdff;fill-opacity:1;stroke:none;stroke-width:0.264583;stroke-linecap:round;stroke-linejoin:round;stroke-dasharray:none;stroke-opacity:1;-inkscape-stroke:hairline"
         id="rect7064"
         width="4.2333331"
         height="4.2333331"
         x="33.866665"
         y="38.099998" /><rect
         style="vector-effect:non-scaling-stroke;fill:#fffdff;fill-opacity:1;stroke:none;stroke-width:0.264583;stroke-linecap:round;stroke-linejoin:round;stroke-dasharray:none;stroke-opacity:1;-inkscape-stroke:hairline"
         id="rect7066"
         width="4.2333331"
         height="4.2333331"
         x="8.4666662"
         y="21.166666" /><rect
         style="vector-effect:non-scaling-stroke;fill:#fffdff;fill-opacity:1;stroke:none;stroke-width:0.264583;stroke-linecap:round;stroke-linejoin:round;stroke-dasharray:none;stroke-opacity:1;-inkscape-stroke:hairline"
         id="rect7068"
         width="4.2333331"
         height="4.2333331"
         x="25.4"
         y="21.166666" /><rect
         style="vector-effect:non-scaling-stroke;fill:#fffdff;fill-opacity:1;stroke:none;stroke-width:0.264583;stroke-linecap:round;stroke-linejoin:round;stroke-dasharray:none;stroke-opacity:1;-inkscape-stroke:hairline"
         id="rect7070"
         width="4.2333331"
         height="4.2333331"
         x="16.933332"
         y="21.166666" /><rect
         style="vector-effect:non-scaling-stroke;fill:#fffdff;fill-opacity:1;stroke:none;stroke-width:0.264583;stroke-linecap:round;stroke-linejoin:round;stroke-dasharray:none;stroke-opacity:1;-inkscape-stroke:hairline"
         id="rect7072"
         width="4.2333331"
         height="4.2333331"
         x="29.633333"
         y="29.633333" /><rect
         style="vector-effect:non-scaling-stroke;fill:#fffdff;fill-opacity:1;stroke:none;stroke-width:0.264583;stroke-linecap:round;stroke-linejoin:round;stroke-dasharray:none;stroke-opacity:1;-inkscape-stroke:hairline"
         id="rect7074"
         width="4.2333331"
         height="4.2333331"
         x="46.566666"
         y="29.633333" /><rect
         style="vector-effect:non-scaling-stroke;fill:#fffdff;fill-opacity:1;stroke:none;stroke-width:0.264583;stroke-linecap:round;stroke-linejoin:round;stroke-dasharray:none;stroke-opacity:1;-inkscape-stroke:hairline"
         id="rect7076"
         width="4.2333331"
         height="4.2333331"
         x="38.099998"
         y="29.633333" /><rect
         style="vector-effect:non-scaling-stroke;fill:#fffdff;fill-opacity:1;stroke:none;stroke-width:0.264583;stroke-linecap:round;stroke-linejoin:round;stroke-dasharray:none;stroke-opacity:1;-inkscape-stroke:hairline"
         id="rect7080"
         width="4.2333331"
         height="4.2333331"
         x="21.166666"
         y="29.633333" /><rect
         style="vector-effect:non-scaling-stroke;fill:#fffdff;fill-opacity:1;stroke:none;stroke-width:0.374177;stroke-linecap:round;stroke-linejoin:round;stroke-dasharray:none;stroke-opacity:1;-inkscape-stroke:hairline"
         id="rect7082"
         width="8.4666662"
         height="4.2333331"
         x="8.4666662"
         y="29.633333" /><rect
         style="vector-effect:non-scaling-stroke;fill:#fffdff;fill-opacity:1;stroke:none;stroke-width:0.264583;stroke-linecap:round;stroke-linejoin:round;stroke-dasharray:none;stroke-opacity:1;-inkscape-stroke:hairline"
         id="rect7084"
         width="4.2333331"
         height="4.2333331"
         x="42.333332"
         y="21.166666" /><rect
         style="vector-effect:non-scaling-stroke;fill:#fffdff;fill-opacity:1;stroke:none;stroke-width:0.264583;stroke-linecap:round;stroke-linejoin:round;stroke-dasharray:none;stroke-opacity:1;-inkscape-stroke:hairline"
         id="rect7086"
         width="4.2333331"
         height="4.2333331"
         x="33.866665"
         y="21.166666" /></g></g><g
     inkscape:groupmode="layer"
     id="layer5"
     inkscape:label="mouse"
     style="display:none"
     sodipodi:insensitive="true"><path
       id="rect8761"
       style="vector-effect:non-scaling-stroke;fill:#30a3f9;fill-opacity:1;stroke:none;stroke-width:0.264583;stroke-linecap:round;stroke-linejoin:round;stroke-dasharray:none;stroke-opacity:1;-inkscape-stroke:hairline"
       d="M 29.633334,4.2333329 C 20.252277,4.2333329 12.7,13.673678 12.7,25.399999 v 4.233334 H 29.633334 V 25.399999 C 27.288071,25.399999 25.4,22.396444 25.4,18.665527 v -3.464388 c 0,-3.730918 1.888071,-6.7344728 4.233334,-6.7344728 z m 4.233333,0 v 4.2333333 c 2.345262,0 4.233333,3.0035548 4.233333,6.7344728 v 3.464388 c 0,3.730917 -1.888071,6.734472 -4.233333,6.734472 v 4.233334 H 50.8 V 25.399999 C 50.8,13.673678 43.247724,4.2333329 33.866667,4.2333329 Z M 12.7,33.866666 v 4.233333 c 0,11.726322 7.552277,21.166667 16.933334,21.166667 h 4.233333 C 43.247724,59.266666 50.8,49.826321 50.8,38.099999 v -4.233333 z" /></g><g
     inkscape:groupmode="layer"
     id="layer6"
     inkscape:label="disable"
     sodipodi:insensitive="true"
     style="display:none"><path
       id="path9141"
       style="vector-effect:non-scaling-stroke;fill:#f44336;fill-opacity:1;stroke:none;stroke-width:0.264583;stroke-linecap:round;stroke-linejoin:round;stroke-dasharray:none;stroke-opacity:1;-inkscape-stroke:hairline"
       d="M 33.866667,8.4666667 A 25.4,25.4 0 0 0 8.4666667,33.866667 a 25.4,25.4 0 0 0 25.4000003,25.4 25.4,25.4 0 0 0 25.4,-25.4 25.4,25.4 0 0 0 -25.4,-25.4000003 z m 0,4.2333333 a 21.166666,21.166666 0 0 1 13.394014,4.779036 L 17.488338,47.251379 A 21.166666,21.166666 0 0 1 12.7,33.866667 21.166666,21.166666 0 0 1 33.866667,12.7 Z m 16.38763,7.772652 A 21.166666,21.166666 0 0 1 55.033333,33.866667 21.166666,21.166666 0 0 1 33.866667,55.033333 21.166666,21.166666 0 0 1 20.481954,50.244995 Z" /></g><g
     inkscape:groupmode="layer"
     id="layer7"
     inkscape:label="codec"
     style="display:none"><path
       id="path9234"
       style="display:none;fill:#34a2f7;stroke-width:0.287006"
       d="m 32.560286,12.697933 c -2.627238,0.0071 -2.902983,1.612759 -2.926953,3.439583 v 1.345138 a 16.933332,16.933332 0 0 0 -4.362524,1.800407 l -0.946196,-0.946713 c -0.777046,-0.756918 -1.562131,-1.395507 -2.461348,-1.401981 -0.615253,-0.0044 -1.283957,0.287063 -2.040702,1.03973 -0.2661,0.264685 -0.56991,0.572493 -0.922425,0.925008 l 0.0016,0.0016 c -0.352515,0.352515 -0.660324,0.656326 -0.925008,0.922424 -1.852742,1.862739 -0.912558,3.193343 0.362251,4.502051 l 0.944645,0.944645 A 16.933332,16.933332 0 0 0 17.483171,29.6323 H 16.13855 c -1.826824,0.02397 -3.432484,0.299715 -3.439584,2.926953 -0.001,0.375323 0.0021,0.807851 0.0021,1.30638 h 0.0021 c 0,0.498531 -0.0031,0.93106 -0.0021,1.30638 0.0071,2.627241 1.612759,2.902983 3.439583,2.926953 h 1.342037 a 16.933332,16.933332 0 0 0 1.800407,4.363558 l -0.945679,0.945162 c -1.274811,1.30871 -2.21497,2.639292 -0.362252,4.502051 0.264686,0.2661 0.572495,0.569911 0.925008,0.922424 l 0.0021,-0.0021 c 0.352514,0.352514 0.655808,0.660841 0.921908,0.925525 1.862737,1.85274 3.192824,0.912558 4.501534,-0.362251 l 0.944128,-0.944129 a 16.933332,16.933332 0 0 0 4.363558,1.801441 v 1.34307 c 0.02397,1.826824 0.299715,3.432483 2.926953,3.439583 0.375323,0.001 0.807849,-0.0021 1.306381,-0.0021 v -0.0026 c 0.498528,0 0.931057,0.0036 1.30638,0.0026 2.627238,-0.0071 2.902983,-1.612759 2.926953,-3.439583 v -1.330151 a 16.933332,16.933332 0 0 0 4.366142,-1.809192 l 0.941028,0.941028 c 1.308708,1.27481 2.639313,2.214991 4.50205,0.362251 0.2661,-0.264684 0.56991,-0.572493 0.922425,-0.925008 l 0.0016,0.0016 c 0.352515,-0.352513 0.660322,-0.656323 0.925008,-0.922424 1.852718,-1.862758 0.912559,-3.193342 -0.362252,-4.502051 l -0.943095,-0.942578 a 16.933332,16.933332 0 0 0 1.809192,-4.366142 h 1.330668 c 1.826827,-0.02397 3.432515,-0.299712 3.439584,-2.926953 10e-4,-0.37532 -0.0021,-0.807849 -0.0021,-1.30638 h 0.0021 c 0,-0.498529 0.0031,-0.931057 0.0021,-1.30638 -0.0071,-2.627238 -1.612759,-2.902983 -3.439583,-2.926953 h -1.3334 A 16.933332,16.933332 0 0 0 48.45234,25.267192 l 0.942061,-0.942062 c 1.274812,-1.308708 2.214991,-2.639313 0.362252,-4.502051 -0.264687,-0.266099 -0.572496,-0.56991 -0.925008,-0.922424 l 0.0016,-0.0016 c -0.352515,-0.352516 -0.656325,-0.660323 -0.922424,-0.925008 -0.756738,-0.752676 -1.425447,-1.044161 -2.040703,-1.03973 -0.899218,0.0065 -1.684302,0.645063 -2.461348,1.401981 l -0.943612,0.944129 A 16.933332,16.933332 0 0 0 38.1,17.471802 V 16.139583 C 38.07603,14.312759 37.800285,12.707069 35.173047,12.7 c -0.375323,-10e-4 -0.807852,0.0021 -1.30638,0.0021 V 12.7 c -0.498532,0 -0.931058,-0.0031 -1.306381,-0.0021 z M 33.866667,25.4 a 8.4666662,8.4666662 0 0 1 8.466666,8.466667 8.4666662,8.4666662 0 0 1 -8.466666,8.466666 A 8.4666662,8.4666662 0 0 1 25.4,33.866667 8.4666662,8.4666662 0 0 1 33.866667,25.4 Z"
       inkscape:label="high"
       sodipodi:insensitive="true" /><path
       id="rect9449"
       style="display:none;vector-effect:non-scaling-stroke;fill:#34a2f7;fill-opacity:1;stroke:none;stroke-width:0.264583;stroke-linecap:round;stroke-linejoin:round;stroke-dasharray:none;stroke-opacity:1;-inkscape-stroke:hairline"
       inkscape:label="medium"
       d="m 29.633333,12.7 v 8.466667 H 25.4 V 16.933333 H 16.933333 V 25.4 h 4.233334 v 4.233333 H 12.7 V 38.1 h 8.466667 v 4.233333 H 16.933333 V 50.8 H 25.4 v -4.233333 h 4.233333 v 8.466666 H 38.1 v -8.466666 h 4.233333 V 50.8 H 50.8 V 42.333333 H 46.566667 V 38.1 h 8.466666 V 29.633333 H 46.566667 V 25.4 H 50.8 v -8.466667 h -8.466667 v 4.233334 H 38.1 V 12.7 Z m 0,12.7 H 38.1 v 4.233333 h 4.233333 V 38.1 H 38.1 v 4.233333 H 29.633333 V 38.1 H 25.4 v -8.466667 h 4.233333 z"
       sodipodi:nodetypes="cccccccccccccccccccccccccccccccccccccccccccccccccc"
       sodipodi:insensitive="true" /><path
       id="rect9563"
       style="display:inline;vector-effect:non-scaling-stroke;fill:#34a2f7;fill-opacity:1;stroke:none;stroke-width:0.264583;stroke-linecap:round;stroke-linejoin:round;stroke-dasharray:none;stroke-opacity:1;-inkscape-stroke:hairline"
       d="m 29.633333,8.4666667 v 8.4666663 h -12.7 v 12.7 H 8.4666667 V 38.1 h 8.4666663 v 12.7 h 12.7 v 8.466667 H 38.1 V 50.8 H 50.8 V 38.1 h 8.466667 V 29.633333 H 50.8 v -12.7 H 38.1 V 8.4666667 Z M 25.4,25.4 H 42.333333 V 42.333333 H 25.4 Z"
       inkscape:label="low"
       sodipodi:insensitive="true" /></g></svg>
